<mxfile host="app.diagrams.net" agent="Mozilla/5.0 (Windows NT 10.0; Win64; x64) AppleWebKit/537.36 (KHTML, like Gecko) Chrome/129.0.0.0 Safari/537.36" version="24.7.17">
  <diagram name="Page-1" id="i0KITuMCZ7HgKePFLaO4">
    <mxGraphModel dx="1050" dy="565" grid="1" gridSize="10" guides="1" tooltips="1" connect="1" arrows="1" fold="1" page="1" pageScale="1" pageWidth="827" pageHeight="1169" math="0" shadow="0">
      <root>
        <mxCell id="0" />
        <mxCell id="1" parent="0" />
        <mxCell id="ABLpFCAV1KpJYJpthuzw-1" value="" style="rounded=0;whiteSpace=wrap;html=1;" parent="1" vertex="1">
          <mxGeometry x="80" y="160" width="80" height="80" as="geometry" />
        </mxCell>
        <mxCell id="ABLpFCAV1KpJYJpthuzw-2" value="&lt;b&gt;&lt;font style=&quot;font-size: 48px;&quot;&gt;3&lt;/font&gt;&lt;/b&gt;" style="text;html=1;align=center;verticalAlign=middle;whiteSpace=wrap;rounded=0;" parent="1" vertex="1">
          <mxGeometry x="85" y="175" width="70" height="50" as="geometry" />
        </mxCell>
        <mxCell id="ABLpFCAV1KpJYJpthuzw-3" value="" style="rounded=0;whiteSpace=wrap;html=1;" parent="1" vertex="1">
          <mxGeometry x="160" y="160" width="80" height="80" as="geometry" />
        </mxCell>
        <mxCell id="ABLpFCAV1KpJYJpthuzw-4" value="&lt;b&gt;&lt;font style=&quot;font-size: 48px;&quot;&gt;1&lt;/font&gt;&lt;/b&gt;" style="text;html=1;align=center;verticalAlign=middle;whiteSpace=wrap;rounded=0;" parent="1" vertex="1">
          <mxGeometry x="165" y="175" width="70" height="50" as="geometry" />
        </mxCell>
        <mxCell id="ABLpFCAV1KpJYJpthuzw-5" value="" style="rounded=0;whiteSpace=wrap;html=1;" parent="1" vertex="1">
          <mxGeometry x="240" y="160" width="80" height="80" as="geometry" />
        </mxCell>
        <mxCell id="ABLpFCAV1KpJYJpthuzw-6" value="&lt;b&gt;&lt;font style=&quot;font-size: 48px;&quot;&gt;4&lt;/font&gt;&lt;/b&gt;" style="text;html=1;align=center;verticalAlign=middle;whiteSpace=wrap;rounded=0;" parent="1" vertex="1">
          <mxGeometry x="245" y="175" width="70" height="50" as="geometry" />
        </mxCell>
        <mxCell id="ABLpFCAV1KpJYJpthuzw-7" value="" style="rounded=0;whiteSpace=wrap;html=1;" parent="1" vertex="1">
          <mxGeometry x="320" y="160" width="80" height="80" as="geometry" />
        </mxCell>
        <mxCell id="ABLpFCAV1KpJYJpthuzw-8" value="&lt;b&gt;&lt;font style=&quot;font-size: 48px;&quot;&gt;2&lt;/font&gt;&lt;/b&gt;" style="text;html=1;align=center;verticalAlign=middle;whiteSpace=wrap;rounded=0;" parent="1" vertex="1">
          <mxGeometry x="325" y="175" width="70" height="50" as="geometry" />
        </mxCell>
        <mxCell id="ABLpFCAV1KpJYJpthuzw-9" value="" style="rounded=0;whiteSpace=wrap;html=1;" parent="1" vertex="1">
          <mxGeometry x="400" y="160" width="80" height="80" as="geometry" />
        </mxCell>
        <mxCell id="ABLpFCAV1KpJYJpthuzw-10" value="&lt;b&gt;&lt;font style=&quot;font-size: 48px;&quot;&gt;11&lt;/font&gt;&lt;/b&gt;" style="text;html=1;align=center;verticalAlign=middle;whiteSpace=wrap;rounded=0;" parent="1" vertex="1">
          <mxGeometry x="405" y="175" width="70" height="50" as="geometry" />
        </mxCell>
        <mxCell id="JFGcZVJTa7ZsRA6F2_4N-2" value="&lt;span style=&quot;font-size: 24px;&quot;&gt;0&lt;/span&gt;" style="text;html=1;align=center;verticalAlign=middle;whiteSpace=wrap;rounded=0;" vertex="1" parent="1">
          <mxGeometry x="85" y="240" width="70" height="50" as="geometry" />
        </mxCell>
        <mxCell id="JFGcZVJTa7ZsRA6F2_4N-3" value="&lt;font style=&quot;font-size: 24px;&quot;&gt;1&lt;/font&gt;" style="text;html=1;align=center;verticalAlign=middle;whiteSpace=wrap;rounded=0;" vertex="1" parent="1">
          <mxGeometry x="165" y="240" width="70" height="50" as="geometry" />
        </mxCell>
        <mxCell id="JFGcZVJTa7ZsRA6F2_4N-4" value="&lt;font style=&quot;font-size: 24px;&quot;&gt;2&lt;/font&gt;" style="text;html=1;align=center;verticalAlign=middle;whiteSpace=wrap;rounded=0;" vertex="1" parent="1">
          <mxGeometry x="245" y="240" width="70" height="50" as="geometry" />
        </mxCell>
        <mxCell id="JFGcZVJTa7ZsRA6F2_4N-5" value="&lt;font style=&quot;font-size: 24px;&quot;&gt;3&lt;/font&gt;" style="text;html=1;align=center;verticalAlign=middle;whiteSpace=wrap;rounded=0;" vertex="1" parent="1">
          <mxGeometry x="325" y="240" width="70" height="50" as="geometry" />
        </mxCell>
        <mxCell id="JFGcZVJTa7ZsRA6F2_4N-6" value="&lt;font style=&quot;font-size: 24px;&quot;&gt;4&lt;/font&gt;" style="text;html=1;align=center;verticalAlign=middle;whiteSpace=wrap;rounded=0;" vertex="1" parent="1">
          <mxGeometry x="405" y="240" width="70" height="50" as="geometry" />
        </mxCell>
      </root>
    </mxGraphModel>
  </diagram>
</mxfile>
